{"title":"Grantchester S02E05 x264 RB58.mp4","uid":14382149,"size":526014318,"categoryP":"video","categoryS":"tv_shows","magnet":"?xt=urn:btih:43d3a7efa702929dc7e64eb1e39afee5c71fc2e1&amp;dn=Grantchester+S02E05+x264+RB58.mp4&amp;tr=udp%3A%2F%2Ftracker.leechers-paradise.org%3A6969&amp;tr=udp%3A%2F%2Fzer0day.ch%3A1337&amp;tr=udp%3A%2F%2Fopen.demonii.com%3A1337&amp;tr=udp%3A%2F%2Ftracker.coppersurfer.tk%3A6969&amp;tr=udp%3A%2F%2Fexodus.desync.com%3A6969","seeders":1,"leechers":0,"uploader":"RedBaron58","files":1,"time":1461241999,"description":"Grantchester S02E05 x264 mp4\r\n \nhttp://www.imdb.com/title/tt3747572/\r\n\r\nTrailer (Series 1):\r\n\r\n\r\nPlease be patient My intial upload speed is limited.\r\nThank you for your kind comments and feedback on my other torrents, your feedback is welcome.\r\n\r\n\r\nAbout the Episode:\r\nAs Gary Bell waits for news about whether he will be offered a reprieve, Geordie and Phil \r\ndiscover a reason to arrest Eddie Jones, a violent husband who beats his wife. However, \r\nwhen Sidney arrives at the station the following morning, he finds Geordie with his knuckles \r\nbruised and Eddie dead on a stretcher. \r\nChief Inspector Benson questions his innocence, and although the vicar leaps to his friend's \r\ndefence, no one can verify his whereabouts when Eddie was killed. At the vicarage, \r\na remark about Mrs Maguire's love life and the accidental loss of some sentimental postcards \r\nleave the housekeeper and Leonard feeling raw and misunderstood.\r\n \r\nStarring James Norton and Robson Green.\r\n\r\n\r\nI hope you enjoy.\r\n\r\n\r\nTechnical:\r\n\r\nGeneral\r\nComplete name                            : G:Grantchester S02E05 x264 RB58.mp4\r\nFormat                                   : MPEG-4\r\nFormat profile                           : Base Media\r\nCodec ID                                 : isom\r\nFile size                                : 502 MiB\r\nDuration                                 : 45mn 57s\r\nOverall bit rate                         : 1 526 Kbps\r\nWriting application                      : Lavf54.63.104\r\n\r\nVideo\r\nID                                       : 1\r\nFormat                                   : AVC\r\nFormat/Info                              : Advanced Video Codec\r\nFormat profile                           :   \r\nFormat settings, CABAC                   : Yes\r\nFormat settings, ReFrames                : 4 frames\r\nCodec ID                                 : avc1\r\nCodec ID/Info                            : Advanced Video Coding\r\nDuration                                 : 45mn 57s\r\nBit rate                                 : 1 400 Kbps\r\nWidth                                    : 832 pixels\r\nHeight                                   : 468 pixels\r\nDisplay aspect ratio                     : 16:9\r\nFrame rate mode                          : Constant\r\nFrame rate                               : 25.000 fps\r\nColor space                              : YUV\r\nChroma subsampling                       : 4:2:0\r\nBit depth                                : 8 bits\r\nScan type                                : Progressive\r\nBits/(Pixel*Frame)                       : 0.144\r\nStream size                              : 460 MiB (92%)\r\nWriting library                          : x264 core 123 r2189 35cf912\r\nEncoding settings                        : cabac=1 / ref=3 / deblock=1:0:0\r\n\r\nAudio\r\nID                                       : 2\r\nFormat                                   : AAC\r\nFormat/Info                              : Advanced Audio Codec\r\nFormat profile                           : LC\r\nCodec ID                                 : 40\r\nDuration                                 : 45mn 57s\r\nBit rate mode                            : Constant\r\nBit rate                                 : 117 Kbps\r\nChannel(s)                               : 2 channels\r\nChannel positions                        : Front: L R\r\nSampling rate                            : 48.0 KHz\r\nCompression mode                         : Lossy\r\nStream size                              : 38.6 MiB (8%)","torrent":{"xt":"urn:btih:43d3a7efa702929dc7e64eb1e39afee5c71fc2e1","amp;dn":"Grantchester+S02E05+x264+RB58.mp4","amp;tr":["udp%3A%2F%2Ftracker.leechers-paradise.org%3A6969","udp%3A%2F%2Fzer0day.ch%3A1337","udp%3A%2F%2Fopen.demonii.com%3A1337","udp%3A%2F%2Ftracker.coppersurfer.tk%3A6969","udp%3A%2F%2Fexodus.desync.com%3A6969"],"infoHash":"43d3a7efa702929dc7e64eb1e39afee5c71fc2e1","infoHashBuffer":{"type":"Buffer","data":[67,211,167,239,167,2,146,157,199,230,78,177,227,154,254,229,199,31,194,225]},"announce":[],"urlList":[]}}